<svg width="97" height="31" viewBox="0 0 97 31" fill="none" xmlns="http://www.w3.org/2000/svg">
<g id="Frame" clip-path="url(#clip0_292_694)">
<g id="Group">
<path id="Vector" d="M11.0939 10.5198C9.80245 8.60843 7.82216 8.40179 6.78897 8.40179C2.8456 8.40179 0.176514 11.4669 0.176514 15.4275C0.176514 19.3192 2.91448 22.5221 6.94394 22.5221C7.90826 22.5221 9.68191 22.3155 11.0423 20.4041V22.1089H14.7962V0.411743H11.0939V10.5198ZM7.75328 19.1815C5.56635 19.1815 4.06822 17.5456 4.06822 15.4275C4.06822 13.3095 5.56635 11.6736 7.75328 11.6736C9.94021 11.6736 11.4383 13.3095 11.4383 15.4275C11.4383 17.5456 9.94021 19.1815 7.75328 19.1815Z" fill="#212121"/>
<path id="Vector_2" d="M25.7831 8.40161C23.3206 8.40161 22.098 9.69311 21.4781 10.5197V8.81489H17.7241V30.5292H21.4092V20.4211C22.9073 22.4014 24.7499 22.5392 25.7142 22.5392C27.6945 22.5392 29.1926 21.7815 30.2258 20.8344C31.0524 20.0767 32.3438 18.4408 32.3438 15.4446C32.3438 12.8444 31.3279 11.1396 30.3636 10.1925C28.8482 8.67713 26.9368 8.40161 25.7831 8.40161ZM27.3501 18.2342C26.8679 18.7163 26.0586 19.1985 24.8187 19.1985C23.665 19.1985 22.8384 18.7163 22.3563 18.3031C21.5986 17.6832 21.1337 16.6672 21.1337 15.4273C21.1337 14.2047 21.5469 13.2404 22.3563 12.5516C23.0451 11.9317 23.7855 11.6562 24.8187 11.6562C25.7142 11.6562 26.6613 12.0006 27.3501 12.6205C28.1077 13.3093 28.5038 14.463 28.5038 15.4273C28.521 16.3917 28.1766 17.4765 27.3501 18.2342Z" fill="#212121"/>
<path id="Vector_3" d="M44.7594 8.81489V10.5197C43.4679 8.60825 41.4876 8.40161 40.4544 8.40161C36.4938 8.40161 33.8247 11.4668 33.8247 15.4273C33.8247 19.319 36.4938 22.522 40.5921 22.522C41.5565 22.522 43.3301 22.3153 44.6905 20.4039V22.1087H48.4444V8.81489H44.7594ZM41.3498 19.1813C39.1629 19.1813 37.6648 17.5454 37.6648 15.4273C37.6648 13.3093 39.1629 11.6734 41.3498 11.6734C43.5367 11.6734 45.0349 13.3093 45.0349 15.4273C45.0349 17.5454 43.5367 19.1813 41.3498 19.1813Z" fill="#212121"/>
</g>
<path id="Vector_4" d="M60.67 19.1125C62.702 19.1125 64.3379 17.4767 64.3379 15.4447C64.3379 13.4127 62.702 11.7769 60.67 11.7769C58.6381 11.7769 57.0022 13.4127 57.0022 15.4447C57.0022 17.4767 58.6553 19.1125 60.67 19.1125Z" fill="#0045F4"/>
<g id="Group_2">
<path id="Vector_5" d="M76.3727 5.58826V23.9412H74.3438V5.58826H76.3727Z" fill="#212121"/>
<path id="Vector_6" d="M80.4331 5.58826H84.1682C86.0128 5.58826 88.6258 5.78808 90.9315 7.74019C92.6069 9.13895 94.0671 11.4753 94.0671 14.7801C94.0671 18.6382 92.1611 20.6979 90.8546 21.82C89.1792 23.2495 87.4115 23.9412 84.1375 23.9412H80.4177V5.58826H80.4331ZM82.4621 22.0045H84.2451C85.7053 22.0045 87.7189 21.8354 89.502 20.3598C90.87 19.2069 91.9767 17.3932 91.9767 14.7801C91.9767 10.384 88.9025 7.50963 84.2451 7.50963H82.4621V22.0045Z" fill="#212121"/>
</g>
</g>
<defs>
<clipPath id="clip0_292_694">
<rect width="96.2594" height="30.1176" fill="white" transform="translate(0.176514 0.411743)"/>
</clipPath>
</defs>
</svg>
